<svg width="256" height="256" version="1.1" xmlns="http://www.w3.org/2000/svg" desc="Created with imagetracer.js version 1.2.6" ><path fill="rgb(0,0,0)" stroke="rgb(0,0,0)" stroke-width="1" opacity="0" d="M 0 0 L 256 0 L 256 256 L 0 256 L 0 0 Z M 93 90 L 91 91 L 88 95 L 87 100 L 88 111 L 91 117 L 87 127 Q 89 134 84 132 Q 83 135 87 134 L 89 139 L 87 140 L 85 143 L 90 141 L 92 146 L 106 156 L 126 160 L 134 160 L 135 159 L 146 158 Q 155 156 161 150 L 167 141 L 170 143 Q 172 144 171 141 L 168 140 Q 167 135 170 133 L 172 134 Q 173 131 169 132 L 168 123 L 165 117 L 169 106 L 167 94 L 163 90 Q 151 90 146 95 Q 140 96 138 93 L 119 93 L 115 95 L 111 95 L 98 90 L 93 90 Z " /><path fill="rgb(243,182,104)" stroke="rgb(243,182,104)" stroke-width="1" opacity="0.996078431372549" d="M 92.5 93 L 99.5 93 L 110.5 98 L 113.5 98 Q 120.7 93.2 134.5 95 L 145.5 98 Q 151 92.5 162.5 93 L 165 95.5 L 165 109.5 L 162 116.5 Q 166.5 121.3 165 131 L 152.5 131 L 150 132.5 L 153.5 133 L 154.5 132 L 165 132 Q 166.3 136.6 163.5 138 L 160.5 136 L 151.5 135 L 151.5 136 Q 159 136 163 139.5 L 157.5 148 Q 145.9 158.4 122.5 157 L 109.5 154 Q 100.2 150.8 95 143.5 L 93 139.5 L 94.5 138 L 105 135.5 L 99.5 135 L 92.5 138 Q 89.8 136.6 91 132 L 105.5 133 L 105.5 132 L 103.5 131 L 91 131 Q 89.6 120.9 94 115.5 L 90 105.5 L 90 97.5 L 92.5 93 Z M 111 113 L 108 114 L 109 116 L 114 115 L 111 113 Z M 144 113 L 142 114 L 142 115 L 148 115 L 144 113 Z M 112 117 L 109 118 L 105 124 L 106 128 L 112 131 L 116 130 L 119 125 L 118 121 Q 116 117 112 117 Z M 144 117 L 141 118 L 137 124 L 138 128 L 143 131 Q 149 132 150 128 Q 151 121 149 119 L 144 117 Z M 127 133 L 127 137 Q 126 139 121 138 L 119 134 L 118 138 L 122 140 Q 127 141 128 138 L 131 140 L 137 139 L 139 136 Q 140 133 137 134 L 136 138 Q 130 139 129 137 L 130 134 L 127 133 Z " /><path fill="rgb(243,182,104)" stroke="rgb(243,182,104)" stroke-width="1" opacity="0.996078431372549" d="M 112.5 119 L 115 120.5 Q 116.3 124.3 112.5 123 L 111 120.5 L 112.5 119 Z " /><path fill="rgb(243,182,104)" stroke="rgb(243,182,104)" stroke-width="1" opacity="0.996078431372549" d="M 141.5 119 L 144 120.5 Q 145.3 124.3 141.5 123 L 140 120.5 L 141.5 119 Z " /><path fill="rgb(41,20,11)" stroke="rgb(41,20,11)" stroke-width="1" opacity="0.9254901960784314" d="M 92.5 90 L 97.5 90 L 110.5 95 L 114.5 95 L 118.5 93 L 137.5 93 Q 139.8 95.7 145.5 95 Q 151.4 89.9 162.5 90 L 167 93.5 L 169 105.5 L 165 116.5 L 168 122.5 L 169 132 Q 173.1 130.7 172 134 L 169.5 133 Q 167.3 134.8 168 139.5 L 171 141 Q 172.1 143.7 169.5 143 L 166.5 141 L 160.5 150 Q 154.7 155.7 145.5 158 L 134.5 159 L 133.5 160 L 125.5 160 L 105.5 156 L 92 145.5 L 89.5 141 L 85 143 L 86.5 140 L 89 138.5 L 86.5 134 Q 82.8 135 84 132 Q 89.3 133.8 87 126.5 L 91 116.5 L 88 110.5 L 87 99.5 L 88 94.5 L 90.5 91 L 92.5 90 Z M 93 93 L 90 98 L 90 106 L 94 116 Q 90 121 91 131 L 104 131 L 106 132 L 106 133 L 91 132 Q 90 137 93 138 L 100 135 L 105 136 L 95 138 L 93 140 L 95 144 Q 100 151 110 154 L 123 157 Q 146 158 158 148 L 163 140 Q 159 136 152 136 L 152 135 L 161 136 L 164 138 Q 166 137 165 132 L 155 132 L 154 133 L 150 133 L 153 131 L 165 131 Q 167 121 162 117 L 165 110 L 165 96 L 163 93 Q 151 93 146 98 L 135 95 Q 121 93 114 98 L 111 98 L 100 93 L 93 93 Z " /><path fill="rgb(41,20,11)" stroke="rgb(41,20,11)" stroke-width="1" opacity="0.9254901960784314" d="M 152.5 103 L 156.5 108 L 152.5 103 Z " /><path fill="rgb(41,20,11)" stroke="rgb(41,20,11)" stroke-width="1" opacity="0.9254901960784314" d="M 98.5 108 L 97.5 110 L 98.5 108 Z " /><path fill="rgb(41,20,11)" stroke="rgb(41,20,11)" stroke-width="1" opacity="0.9254901960784314" d="M 110.5 113 L 114 114.5 L 108.5 116 L 108 114 L 110.5 113 Z " /><path fill="rgb(41,20,11)" stroke="rgb(41,20,11)" stroke-width="1" opacity="0.9254901960784314" d="M 143.5 113 L 148 114.5 L 141.5 115 L 141.5 114 L 143.5 113 Z " /><path fill="rgb(41,20,11)" stroke="rgb(41,20,11)" stroke-width="1" opacity="0.9254901960784314" d="M 111.5 117 Q 116.3 117.3 118 120.5 L 119 124.5 L 115.5 130 L 111.5 131 L 106 127.5 L 105 123.5 L 108.5 118 L 111.5 117 Z M 113 119 L 111 121 L 113 123 Q 116 124 115 121 L 113 119 Z " /><path fill="rgb(41,20,11)" stroke="rgb(41,20,11)" stroke-width="1" opacity="0.9254901960784314" d="M 143.5 117 L 149 119 Q 150.8 121.4 150 127.5 Q 148.7 131.7 142.5 131 L 138 127.5 L 137 123.5 L 140.5 118 L 143.5 117 Z M 142 119 L 140 121 L 142 123 Q 145 124 144 121 L 142 119 Z " /><path fill="rgb(41,20,11)" stroke="rgb(41,20,11)" stroke-width="1" opacity="0.9254901960784314" d="M 127 133 L 130 133.5 L 129 136.5 Q 130.3 139.3 135.5 138 L 137 134 Q 139.7 132.9 139 135.5 L 136.5 139 L 130.5 140 L 127.5 138 Q 126.5 141 121.5 140 L 118 137.5 L 118.5 134 L 120.5 138 Q 125.8 139.3 127 136.5 L 127 133 Z " /></svg>