<svg width="256" height="256" version="1.1" xmlns="http://www.w3.org/2000/svg" desc="Created with imagetracer.js version 1.2.6" ><path fill="rgb(35,16,9)" stroke="rgb(35,16,9)" stroke-width="1" opacity="0.8549019607843137" d="M 146.5 88 L 157.5 88 L 170.5 93 L 174.5 92 Q 185.4 95.6 192 103.5 L 191.5 107 L 181.5 98 L 175.5 95 L 172.5 95 L 176 99.5 L 181.5 112 L 182.5 110 L 183.5 112 L 187 106.5 L 184.5 103 L 192 109.5 L 192 131.5 L 190 133.5 L 187 143.5 L 179.5 152 L 168.5 158 L 157.5 160 L 146.5 160 L 130.5 156 L 118 145.5 L 114 136.5 L 114 133 Q 107.4 131.9 104 126.5 L 102 118.5 Q 104.9 105.9 114.5 100 L 126.5 93 L 132.5 92 L 134.5 92 L 146.5 88 Z M 144 91 L 135 95 L 127 105 L 123 124 L 118 131 L 118 138 L 121 144 Q 128 154 144 157 L 149 157 L 147 155 Q 143 152 143 147 Q 137 142 135 135 L 137 132 L 137 136 Q 139 141 149 140 L 151 136 L 148 135 Q 143 134 144 129 L 149 125 L 158 126 L 160 130 L 159 133 L 153 136 L 155 140 Q 162 141 165 138 L 167 134 L 167 132 L 169 134 L 165 143 L 161 147 L 159 154 L 157 155 L 156 157 Q 169 157 177 150 L 184 142 L 186 136 L 186 131 L 180 123 L 177 107 L 172 97 L 160 91 L 144 91 Z M 129 95 Q 116 100 109 110 L 110 111 L 119 104 L 121 103 L 116 107 L 118 107 L 119 112 L 121 111 L 122 114 Q 123 104 128 99 L 132 96 L 129 95 Z M 183 112 L 182 116 L 183 116 L 183 112 Z M 121 114 L 120 118 L 121 118 L 121 114 Z M 184 116 L 183 119 L 184 119 L 184 116 Z M 150 126 L 148 128 L 151 129 L 156 128 Q 155 125 150 126 Z M 150 141 L 145 144 L 146 152 L 151 155 L 156 154 Q 161 151 159 142 L 150 141 Z " /><path fill="rgb(35,16,9)" stroke="rgb(35,16,9)" stroke-width="1" opacity="0.8549019607843137" d="M 135.5 109 Q 139.3 108.3 140 110.5 L 133.5 112 L 133 110 L 135.5 109 Z " /><path fill="rgb(35,16,9)" stroke="rgb(35,16,9)" stroke-width="1" opacity="0.8549019607843137" d="M 165.5 109 L 170 110.5 L 163.5 111 L 163.5 110 L 165.5 109 Z " /><path fill="rgb(35,16,9)" stroke="rgb(35,16,9)" stroke-width="1" opacity="0.8549019607843137" d="M 134.5 114 Q 140.8 112.8 142 116.5 L 143 120.5 L 141 126 L 134.5 127 L 132 126 Q 130.3 123.6 131 117.5 L 134.5 114 Z M 138 115 L 136 117 Q 135 120 139 119 L 140 117 L 138 115 Z " /><path fill="rgb(35,16,9)" stroke="rgb(35,16,9)" stroke-width="1" opacity="0.8549019607843137" d="M 164.5 114 Q 171.8 112.8 173 117.5 Q 174.5 125.5 169.5 127 Q 163.3 128.3 162 124.5 L 161 118.5 L 164.5 114 Z M 166 115 L 164 117 L 166 119 Q 169 120 168 117 L 166 115 Z " /><path fill="rgb(0,0,0)" stroke="rgb(0,0,0)" stroke-width="1" opacity="0" d="M 0 0 L 256 0 L 256 256 L 0 256 L 0 0 Z M 147 88 L 135 92 L 133 92 L 127 93 L 115 100 Q 105 106 102 119 L 104 127 Q 107 132 114 133 L 114 137 L 118 146 L 131 156 L 147 160 L 158 160 L 169 158 L 180 152 L 187 144 L 190 134 L 192 132 L 192 110 L 193 109 L 192 104 Q 185 96 175 92 L 171 93 L 158 88 L 147 88 Z " /><path fill="rgb(218,163,110)" stroke="rgb(218,163,110)" stroke-width="1" opacity="0.9921568627450981" d="M 143.5 91 L 159.5 91 L 172 97 L 177 106.5 L 180 122.5 L 186 130.5 L 186 135.5 L 184 141.5 L 176.5 150 Q 169 156.5 155.5 157 L 156.5 155 L 159 153.5 L 161 146.5 L 165 142.5 L 169 133.5 L 166.5 132 L 167 133.5 L 165 138 Q 162.1 140.9 154.5 140 L 153 136 L 159 132.5 L 160 129.5 L 157.5 126 L 148.5 125 L 144 128.5 Q 143.3 134.3 147.5 135 L 151 136 L 148.5 140 Q 139.2 141.3 137 135.5 L 136.5 132 L 135 134.5 Q 137.2 142.3 143 146.5 Q 143.3 152.3 146.5 155 L 149 156.5 L 143.5 157 Q 128.2 154.3 121 143.5 L 118 137.5 L 118 130.5 L 123 123.5 L 127 104.5 L 134.5 95 L 143.5 91 Z M 136 109 L 133 110 L 134 112 L 140 111 Q 139 108 136 109 Z M 166 109 L 164 110 L 164 111 L 170 111 L 166 109 Z M 135 114 L 131 118 Q 130 124 132 126 L 135 127 L 141 126 L 143 121 L 142 117 Q 141 113 135 114 Z M 165 114 L 161 119 L 162 125 Q 163 128 170 127 Q 175 126 173 118 Q 172 113 165 114 Z " /><path fill="rgb(218,163,110)" stroke="rgb(218,163,110)" stroke-width="1" opacity="0.9921568627450981" d="M 128.5 95 L 132 95.5 L 128 98.5 Q 122 106 120.5 118 L 120 114.5 L 121 111.5 L 119 111.5 L 118 107 L 115.5 106 L 108.5 112 L 109 110.5 L 116.5 102 L 128.5 95 Z " /><path fill="rgb(218,163,110)" stroke="rgb(218,163,110)" stroke-width="1" opacity="0.9921568627450981" d="M 172.5 95 L 175.5 95 L 181.5 98 L 193 107 Q 194.1 109.7 191.5 109 L 187.5 106 L 187.5 108 Q 186.3 105.8 185 108.5 L 183 115.5 L 184 118.5 L 183 118.5 Q 180.8 102.8 172.5 95 Z " /><path fill="rgb(218,163,110)" stroke="rgb(218,163,110)" stroke-width="1" opacity="0.9921568627450981" d="M 137.5 115 L 140 116.5 L 138.5 119 Q 134.8 120.3 136 116.5 L 137.5 115 Z " /><path fill="rgb(218,163,110)" stroke="rgb(218,163,110)" stroke-width="1" opacity="0.9921568627450981" d="M 165.5 115 L 168 116.5 Q 169.3 120.3 165.5 119 L 164 116.5 L 165.5 115 Z " /><path fill="rgb(218,163,110)" stroke="rgb(218,163,110)" stroke-width="1" opacity="0.9921568627450981" d="M 149.5 126 Q 154.8 124.8 156 127.5 L 150.5 129 L 148 127.5 L 149.5 126 Z " /><path fill="rgb(218,163,110)" stroke="rgb(218,163,110)" stroke-width="1" opacity="0.9921568627450981" d="M 149.5 141 L 159 142 Q 160.8 151 155.5 154 L 150.5 155 L 146 151.5 L 145 143.5 L 149.5 141 Z " /></svg>