<svg width="256" height="256" version="1.1" xmlns="http://www.w3.org/2000/svg" desc="Created with imagetracer.js version 1.2.6" ><path fill="rgb(32,16,8)" stroke="rgb(32,16,8)" stroke-width="1" opacity="0.8549019607843137" d="M 95.5 81 Q 105.8 80.8 108.5 88 L 119.5 89 L 122.5 85 Q 125.9 79.9 135.5 81 Q 142 85 141 96.5 L 140 98.5 L 149.5 107 Q 155.1 106.9 157 110.5 L 159 117.5 L 158 118.5 L 162 122.5 Q 166.8 128.7 165 141.5 Q 162.3 151.3 154.5 156 L 146.5 160 L 134.5 163 L 119.5 164 L 118.5 165 L 106.5 165 L 105.5 164 L 96.5 164 L 82.5 161 Q 70.9 157.1 64 148.5 L 64.5 135 L 71 139.5 L 67.5 144 L 66 143.5 L 70.5 150 L 77.5 149 L 81 151 L 82 154.5 L 81.5 156 L 88.5 152 L 89.5 154 L 87.5 153 L 84 156.5 L 85.5 158 L 89 159 L 89.5 157 L 90.5 159 L 93 156.5 Q 89 154.5 93 152.5 L 92 144.5 L 95 139.5 L 92 135.5 Q 93.5 130 91 128.5 L 92 125.5 L 90.5 126 Q 86.8 126.8 86 124.5 Q 84.8 118.4 87.5 119 L 89.5 118 L 92 119 L 92.5 122 Q 94.8 121.3 94 117.5 L 92 113.5 Q 95.3 112.3 94 106.5 L 93 104 L 86.5 103 L 84 106.5 L 87 105.5 L 86.5 108 L 76.5 108 L 74.5 110 L 74.5 108 L 71 110.5 L 70.5 112 L 67.5 108 Q 62.3 109.5 64 105 L 69.5 106 Q 77 95.8 90 92 L 91 85.5 L 93.5 82 L 95.5 81 Z M 97 83 L 93 88 Q 92 103 101 110 Q 103 105 111 105 L 110 99 L 105 89 Q 103 84 97 83 Z M 132 83 L 128 85 Q 117 92 116 107 Q 105 105 101 111 L 97 116 L 94 126 L 95 129 L 93 129 L 95 137 L 99 139 L 100 141 L 97 140 L 94 145 Q 93 147 96 146 L 95 148 L 96 150 Q 95 152 98 151 L 98 153 L 100 153 L 98 157 L 98 160 L 102 159 L 105 160 L 108 156 L 109 156 L 108 161 L 110 160 L 112 161 L 113 159 L 113 161 L 119 160 L 116 155 Q 115 146 120 144 L 119 139 L 119 137 L 120 134 L 119 128 L 115 127 Q 114 120 118 119 L 121 120 Q 123 116 130 115 L 136 105 L 138 97 Q 139 88 136 84 L 132 83 Z M 109 90 L 114 103 L 117 91 L 109 90 Z M 89 95 Q 80 98 75 105 L 81 106 Q 84 107 83 105 Q 84 100 91 101 L 92 102 L 91 98 Q 92 94 89 95 Z M 141 102 L 136 111 L 137 112 L 146 108 L 141 102 Z M 145 110 L 137 114 L 131 121 L 129 122 L 132 118 L 129 117 L 129 119 L 121 137 L 132 141 L 143 140 Q 144 138 145 141 L 142 142 Q 128 144 122 138 L 121 142 Q 126 148 137 150 Q 146 152 151 148 L 156 144 L 154 147 L 151 150 L 134 157 Q 133 160 136 159 L 138 159 Q 147 158 153 153 Q 159 148 162 140 L 162 131 L 158 121 L 156 122 L 151 119 Q 142 117 139 121 L 137 121 L 145 117 Q 151 116 154 119 Q 155 121 156 119 L 155 113 Q 153 108 145 110 Z M 98 111 L 96 114 L 98 113 L 98 111 Z M 132 114 L 132 116 L 134 115 L 132 114 Z M 127 118 L 125 119 L 121 125 Q 120 132 123 131 L 128 119 L 127 118 Z M 88 119 Q 87 122 90 121 Q 91 118 88 119 Z M 117 120 L 117 123 Q 121 124 120 122 L 117 120 Z M 121 146 L 118 150 L 119 156 Q 121 161 130 159 L 133 155 L 132 152 L 129 149 L 124 150 Q 123 154 126 155 L 128 154 L 128 156 L 126 157 L 123 156 L 123 151 L 125 147 L 121 146 Z M 75 150 L 73 152 Q 72 155 75 154 L 76 154 Q 75 156 78 155 L 79 151 L 75 150 Z M 135 153 L 135 156 L 138 154 L 135 153 Z " /><path fill="rgb(32,16,8)" stroke="rgb(32,16,8)" stroke-width="1" opacity="0.8549019607843137" d="M 64.5 110 L 68 111 L 68 116 L 66.5 116 L 64.5 117 L 67 113.5 L 65.5 111 L 64.5 110 Z " /><path fill="rgb(32,16,8)" stroke="rgb(32,16,8)" stroke-width="1" opacity="0.8549019607843137" d="M 65.5 118 L 66 120.5 L 64 121.5 L 65.5 118 Z " /><path fill="rgb(32,16,8)" stroke="rgb(32,16,8)" stroke-width="1" opacity="0.8549019607843137" d="M 99.5 119 L 102 119.5 L 100 120 L 101.5 123 L 104 121.5 Q 104.8 126.3 101.5 127 Q 97.5 127.5 97 124.5 Q 96.3 119.8 99.5 119 Z " /><path fill="rgb(32,16,8)" stroke="rgb(32,16,8)" stroke-width="1" opacity="0.8549019607843137" d="M 70.5 121 Q 75 120 76 122.5 Q 77.3 128.8 73.5 130 L 69 129 L 68 124.5 L 70.5 121 Z M 72 122 L 72 125 L 75 124 Q 76 121 72 122 Z " /><path fill="rgb(32,16,8)" stroke="rgb(32,16,8)" stroke-width="1" opacity="0.8549019607843137" d="M 142.5 121 L 147.5 121 L 154 126.5 L 155 132.5 L 150.5 138 L 146.5 139 L 146.5 138 Q 151.3 137.8 153 134.5 L 154 130.5 L 150.5 124 L 144.5 122 L 137 127.5 Q 135.9 134.6 140 136.5 L 137 134.5 L 136 127.5 L 140.5 122 L 142.5 121 Z " /><path fill="rgb(32,16,8)" stroke="rgb(32,16,8)" stroke-width="1" opacity="0.8549019607843137" d="M 143.5 124 L 149 126.5 L 150 131.5 L 147.5 135 L 143.5 136 L 140 133.5 L 139 128.5 L 141.5 125 L 141 126.5 L 142.5 129 L 145 127.5 L 143.5 124 Z " /><path fill="rgb(32,16,8)" stroke="rgb(32,16,8)" stroke-width="1" opacity="0.8549019607843137" d="M 82.5 129 L 86.5 132 L 89 130.5 Q 85.2 131.8 86 136 L 83.5 137 L 81 136 Q 82.1 133.3 79.5 134 L 77 133 L 77.5 131 L 80.5 133 Q 84.2 131 82.5 129 Z M 84 132 L 82 135 Q 84 138 85 135 L 84 132 Z " /><path fill="rgb(32,16,8)" stroke="rgb(32,16,8)" stroke-width="1" opacity="0.8549019607843137" d="M 108.5 129 L 109 132 L 111.5 133 L 114.5 131 L 112.5 134 L 107.5 132 L 103.5 133 L 102 130.5 L 104.5 132 L 108 130.5 L 108.5 129 Z " /><path fill="rgb(32,16,8)" stroke="rgb(32,16,8)" stroke-width="1" opacity="0.8549019607843137" d="M 67.5 131 L 69 131.5 L 64.5 133 L 64.5 132 L 67.5 131 Z " /><path fill="rgb(32,16,8)" stroke="rgb(32,16,8)" stroke-width="1" opacity="0.8549019607843137" d="M 92.5 139 L 91.5 141 L 92.5 139 Z " /><path fill="rgb(0,0,0)" stroke="rgb(0,0,0)" stroke-width="1" opacity="0" d="M 0 0 L 256 0 L 256 256 L 0 256 L 0 0 Z M 96 81 L 94 82 L 91 86 L 90 92 Q 77 96 70 106 L 67 105 Q 63 104 64 108 L 64 110 L 63 114 L 63 116 Q 62 120 64 122 L 64 130 L 63 131 L 64 134 L 64 149 Q 71 157 83 161 L 97 164 L 106 164 L 107 165 L 119 165 L 120 164 L 135 163 L 147 160 L 155 156 Q 162 151 165 142 Q 167 129 162 123 L 158 119 L 159 118 L 157 111 Q 155 107 150 107 L 140 99 L 141 97 Q 142 85 136 81 Q 126 80 123 85 L 120 89 L 109 88 Q 106 81 96 81 Z " /><path fill="rgb(203,177,118)" stroke="rgb(203,177,118)" stroke-width="1" opacity="0.9921568627450981" d="M 96.5 83 Q 102.9 83.7 105 88.5 L 110 98.5 L 111 105 Q 103.3 104.5 100.5 110 Q 92.2 103.3 93 87.5 L 96.5 83 Z " /><path fill="rgb(203,177,118)" stroke="rgb(203,177,118)" stroke-width="1" opacity="0.9921568627450981" d="M 131.5 83 L 136 84 Q 138.9 87.9 138 96.5 L 136 104.5 L 129.5 115 Q 123.3 115.8 120.5 120 L 117.5 119 L 117.5 120 L 120 121.5 Q 120.7 124.5 117 123 L 116.5 120 Q 113.8 121.3 115 126.5 L 119 128 L 120 133.5 L 119 136.5 L 119 138.5 L 120 143.5 Q 114.7 145.7 116 154.5 L 119 159.5 L 113 161 L 112.5 159 L 112 161 L 109.5 160 L 108 160.5 L 107.5 157 Q 107 160.5 102.5 160 L 100.5 160 Q 96.3 161.3 98 156.5 L 100 153 L 98 153 L 98 151 Q 95.3 152.1 96 149.5 L 95 147.5 L 95.5 146 Q 93.3 146.8 94 144.5 L 96.5 140 L 99 139.5 L 95 136.5 L 93 129 L 95 128.5 L 94 125.5 L 97 115.5 L 100.5 111 Q 105.2 105.4 116 107 Q 117.3 92 127.5 85 L 131.5 83 Z M 100 119 Q 96 120 97 125 Q 98 127 102 127 Q 105 126 104 122 L 102 123 L 100 120 L 102 120 L 100 119 Z M 109 129 L 107 132 L 109 132 L 109 129 Z M 103 130 L 104 133 L 107 133 L 103 130 Z M 110 132 Q 109 134 113 134 L 114 132 L 112 133 L 110 132 Z " /><path fill="rgb(203,177,118)" stroke="rgb(203,177,118)" stroke-width="1" opacity="0.9921568627450981" d="M 109 90 L 117 91 L 113.5 103 L 109 90 Z " /><path fill="rgb(203,177,118)" stroke="rgb(203,177,118)" stroke-width="1" opacity="0.9921568627450981" d="M 88.5 95 Q 92.3 93.8 91 97.5 L 92 101.5 L 90.5 101 Q 84 100 83 104.5 Q 83.8 107.1 80.5 106 L 75.5 105 L 74 105.5 Q 79.2 98.2 88.5 95 Z " /><path fill="rgb(203,177,118)" stroke="rgb(203,177,118)" stroke-width="1" opacity="0.9921568627450981" d="M 140.5 102 L 145.5 108 L 136.5 112 L 136 110.5 L 140.5 102 Z " /><path fill="rgb(203,177,118)" stroke="rgb(203,177,118)" stroke-width="1" opacity="0.9921568627450981" d="M 86.5 103 L 93 104 Q 94.6 106.1 94 111.5 L 92 114.5 Q 94.6 115.9 94 120.5 L 92 121.5 Q 93 117.8 90 119 Q 91 122 88 121 Q 89 118 86 119 Q 84.5 124.4 87.5 126 L 91.5 125 L 92 127.5 L 92 129.5 Q 90.7 137.3 95 139.5 Q 91.2 141.7 92 148.5 L 93 152.5 Q 89 154.5 93 156.5 L 90.5 159 L 89.5 157 L 89 159 L 84 156.5 L 86.5 153 L 81.5 156 L 82 154.5 L 81 151 Q 78 149.8 79 153.5 L 76 155 L 75.5 153 L 73 154 L 74.5 150 L 78.5 151 L 77.5 149 L 70.5 150 L 66 143.5 L 69 142.5 L 71 139.5 L 64 134.5 L 63 130.5 Q 65.8 128.8 64 122.5 L 66 118.5 L 65 118.5 L 63.5 121 L 63 115.5 L 63 113.5 L 64 109.5 L 63.5 108 Q 68 107 69 109.5 L 70.5 112 L 73.5 108 L 75.5 109 L 76.5 108 L 87 107.5 L 84 106.5 L 86.5 103 Z M 67 111 L 67 114 L 65 117 L 68 116 L 68 111 L 67 111 Z M 71 121 L 68 125 L 69 129 L 72 130 Q 76 131 76 128 L 76 122 L 74 125 Q 71 126 72 122 L 75 122 L 71 121 Z M 84 130 L 80 133 L 80 134 Q 82 133 81 136 L 83 136 L 82 134 Q 84 131 85 134 L 84 136 L 86 136 L 87 133 L 84 130 Z M 78 131 Q 76 134 79 133 L 78 131 Z M 65 132 L 65 133 L 67 133 L 65 132 Z " /><path fill="rgb(203,177,118)" stroke="rgb(203,177,118)" stroke-width="1" opacity="0.9921568627450981" d="M 144.5 110 Q 153 108 155 112.5 L 156 118.5 Q 154.8 121.3 153.5 119 Q 150.6 116.4 144.5 117 L 139 119.5 L 140.5 120 L 141.5 119 L 150.5 119 L 155.5 122 L 158 121 L 162 130.5 L 162 139.5 Q 159.2 148.2 152.5 153 Q 146.7 157.7 137.5 159 L 135.5 159 Q 132.9 159.7 134 157 L 136 156.5 L 135 153 L 138 153.5 L 136.5 156 L 150.5 150 L 154 146.5 L 153.5 145 Q 149.6 152.1 136.5 150 Q 126.3 148.2 121 141.5 L 121.5 138 Q 127.5 144 141.5 142 L 145 140.5 Q 143.8 137.8 142.5 140 L 131.5 141 L 121 137 L 123 131.5 L 121 131 Q 119.6 122.5 124.5 119 L 131.5 117 L 132.5 118 L 136.5 114 L 144.5 110 Z M 131 119 L 129 122 L 131 121 L 131 119 Z M 143 121 L 137 126 L 138 127 L 145 122 L 150 124 L 151 124 Q 149 120 143 121 Z M 126 123 L 123 130 L 124 131 L 126 128 L 126 123 Z M 144 124 L 145 128 L 143 129 L 141 126 L 139 129 L 140 134 L 144 136 L 148 135 L 150 132 L 149 127 L 144 124 Z M 153 125 L 154 131 L 153 133 L 154 135 L 155 133 Q 156 127 153 125 Z M 137 127 L 136 133 L 137 133 L 137 127 Z M 147 138 L 147 139 L 149 139 L 147 138 Z " /><path fill="rgb(203,177,118)" stroke="rgb(203,177,118)" stroke-width="1" opacity="0.9921568627450981" d="M 97.5 111 L 98 112.5 L 96 113.5 L 97.5 111 Z " /><path fill="rgb(203,177,118)" stroke="rgb(203,177,118)" stroke-width="1" opacity="0.9921568627450981" d="M 132 114 L 134 114.5 L 132 115.5 L 132 114 Z " /><path fill="rgb(203,177,118)" stroke="rgb(203,177,118)" stroke-width="1" opacity="0.9921568627450981" d="M 120.5 146 L 125 147 L 124 149.5 L 125.5 150 L 128.5 149 L 132 151.5 L 133 154.5 L 129.5 159 Q 120.8 160.8 119 155.5 L 118 149.5 L 120.5 146 Z M 124 150 L 123 156 L 126 157 L 128 156 L 128 154 L 126 155 L 124 150 Z " /></svg>